# xmcd CD database file
#
# Track frame offsets:
#	150
#	10890
#	23103
#	35065
#	48570
#	64226
#	76257
#	90949
#	103609
#	115939
#	127029
#	140625
#	154232
#	166308
#	179245
#	193292
#	206509
#	219782
#	233298
#	246044
#	258959
#	272346
#
# Disc length: 3763 seconds
#
# Revision: 0
# Processed by: cddbd v1.5.2PL0 Copyright (c) Steve Scherf et al.
# Submitted via: CDex 1.70beta2
#
DISCID=2f0eb116
DTITLE=Various Artist - Country #1's - CD2 - (Original Recordings)
DYEAR=2004
DGENRE=Country Classics
TTITLE0=Hank Thompson - Rub-A-Dub-Dub
TTITLE1=Jim Reeves - Mexican Joe
TTITLE2=Eddy Arnold - Don't rob another man's castle
TTITLE3=Al Dexter - So long Pal
TTITLE4=Ernest Tubb - It's been so long darling
TTITLE5=Carl Smith - Are you teasing me
TTITLE6=Ernest Tubb - Solider's last letter
TTITLE7=Hank Snow - The golden rocket
TTITLE8=Hank Thompson - The wild side og life
TTITLE9=Webb Pierce - There stands the glass
TTITLE10=Lefty Frizzell - If you've got the money
TTITLE11=Merle Travis - So round, so firm, so fully packed
TTITLE12=Eddy Arnold - Easy on the eyes
TTITLE13=Spade Cooley - Shame on you
TTITLE14=Tennessee Ernie Ford - Mule train
TTITLE15=Tex Ritter - You will have to pay (for your yesterday)
TTITLE16=Webb Pierce - That heart belongs to me
TTITLE17=Wesley Tuttle - With tears in my eyes
TTITLE18=Al Dexter - Rosalita
TTITLE19=Bob Wills and His Texas Playboys - Stars and stripes on Iwo Jima
TTITLE20=Hank Snow - I don't hurt anymore
TTITLE21=Eddy Arnold - Cattle call
EXTD=YEAR: 2004
EXTT0=
EXTT1=
EXTT2=
EXTT3=
EXTT4=
EXTT5=
EXTT6=
EXTT7=
EXTT8=
EXTT9=
EXTT10=
EXTT11=
EXTT12=
EXTT13=
EXTT14=
EXTT15=
EXTT16=
EXTT17=
EXTT18=
EXTT19=
EXTT20=
EXTT21=
PLAYORDER=
